<svg width="144" height="37" viewBox="0 0 144 37" fill="none" xmlns="http://www.w3.org/2000/svg">
<path d="M22.912 2.304V8.88H9.184V15.984H19.456V22.368H9.184V36H0.976V2.304H22.912ZM35.434 0.48V36H27.226V0.48H35.434ZM45.2223 36.384C43.7823 36.384 42.5983 35.968 41.6703 35.136C40.7743 34.272 40.3263 33.216 40.3263 31.968C40.3263 30.688 40.7743 29.616 41.6703 28.752C42.5983 27.888 43.7823 27.456 45.2223 27.456C46.6303 27.456 47.7823 27.888 48.6783 28.752C49.6063 29.616 50.0703 30.688 50.0703 31.968C50.0703 33.216 49.6063 34.272 48.6783 35.136C47.7823 35.968 46.6303 36.384 45.2223 36.384ZM53.2971 22.56C53.2971 19.808 53.8091 17.392 54.8331 15.312C55.8891 13.232 57.3131 11.632 59.1051 10.512C60.8971 9.392 62.8971 8.832 65.1051 8.832C66.8651 8.832 68.4651 9.2 69.9051 9.936C71.3771 10.672 72.5291 11.664 73.3611 12.912V0.48H81.5691V36H73.3611V32.16C72.5931 33.44 71.4891 34.464 70.0491 35.232C68.6411 36 66.9931 36.384 65.1051 36.384C62.8971 36.384 60.8971 35.824 59.1051 34.704C57.3131 33.552 55.8891 31.936 54.8331 29.856C53.8091 27.744 53.2971 25.312 53.2971 22.56ZM73.3611 22.608C73.3611 20.56 72.7851 18.944 71.6331 17.76C70.5131 16.576 69.1371 15.984 67.5051 15.984C65.8731 15.984 64.4811 16.576 63.3291 17.76C62.2091 18.912 61.6491 20.512 61.6491 22.56C61.6491 24.608 62.2091 26.24 63.3291 27.456C64.4811 28.64 65.8731 29.232 67.5051 29.232C69.1371 29.232 70.5131 28.64 71.6331 27.456C72.7851 26.272 73.3611 24.656 73.3611 22.608ZM112.755 22.176C112.755 22.944 112.707 23.744 112.611 24.576H94.0353C94.1633 26.24 94.6913 27.52 95.6193 28.416C96.5793 29.28 97.7473 29.712 99.1233 29.712C101.171 29.712 102.595 28.848 103.395 27.12H112.131C111.683 28.88 110.867 30.464 109.683 31.872C108.531 33.28 107.075 34.384 105.315 35.184C103.555 35.984 101.587 36.384 99.4113 36.384C96.7873 36.384 94.4513 35.824 92.4033 34.704C90.3553 33.584 88.7553 31.984 87.6033 29.904C86.4513 27.824 85.8753 25.392 85.8753 22.608C85.8753 19.824 86.4353 17.392 87.5553 15.312C88.7073 13.232 90.3073 11.632 92.3553 10.512C94.4033 9.392 96.7553 8.832 99.4113 8.832C102.003 8.832 104.307 9.376 106.323 10.464C108.339 11.552 109.907 13.104 111.027 15.12C112.179 17.136 112.755 19.488 112.755 22.176ZM104.355 20.016C104.355 18.608 103.875 17.488 102.915 16.656C101.955 15.824 100.755 15.408 99.3153 15.408C97.9393 15.408 96.7713 15.808 95.8113 16.608C94.8833 17.408 94.3073 18.544 94.0833 20.016H104.355ZM129.133 28.32L134.941 9.216H143.677L134.173 36H124.045L114.541 9.216H123.325L129.133 28.32Z" fill="#272222"/>
</svg>
