<svg width="97" height="25" viewBox="0 0 97 25" fill="none" xmlns="http://www.w3.org/2000/svg">
<path d="M15.608 1.536V5.92H6.456V10.656H13.304V14.912H6.456V24H0.984V1.536H15.608ZM23.956 0.32V24H18.484V0.32H23.956ZM35.8648 15.04C35.8648 13.2053 36.2061 11.5947 36.8888 10.208C37.5928 8.82133 38.5421 7.75467 39.7368 7.008C40.9314 6.26133 42.2648 5.888 43.7368 5.888C44.9101 5.888 45.9768 6.13333 46.9368 6.624C47.9181 7.11467 48.6861 7.776 49.2408 8.608V0.32H54.7128V24H49.2408V21.44C48.7288 22.2933 47.9928 22.976 47.0328 23.488C46.0941 24 44.9954 24.256 43.7368 24.256C42.2648 24.256 40.9314 23.8827 39.7368 23.136C38.5421 22.368 37.5928 21.2907 36.8888 19.904C36.2061 18.496 35.8648 16.8747 35.8648 15.04ZM49.2408 15.072C49.2408 13.7067 48.8568 12.6293 48.0888 11.84C47.3421 11.0507 46.4248 10.656 45.3368 10.656C44.2488 10.656 43.3208 11.0507 42.5528 11.84C41.8061 12.608 41.4328 13.6747 41.4328 15.04C41.4328 16.4053 41.8061 17.4933 42.5528 18.304C43.3208 19.0933 44.2488 19.488 45.3368 19.488C46.4248 19.488 47.3421 19.0933 48.0888 18.304C48.8568 17.5147 49.2408 16.4373 49.2408 15.072ZM75.5035 14.784C75.5035 15.296 75.4715 15.8293 75.4075 16.384H63.0235C63.1088 17.4933 63.4608 18.3467 64.0795 18.944C64.7195 19.52 65.4982 19.808 66.4155 19.808C67.7808 19.808 68.7302 19.232 69.2635 18.08H75.0875C74.7888 19.2533 74.2448 20.3093 73.4555 21.248C72.6875 22.1867 71.7168 22.9227 70.5435 23.456C69.3702 23.9893 68.0582 24.256 66.6075 24.256C64.8582 24.256 63.3008 23.8827 61.9355 23.136C60.5702 22.3893 59.5035 21.3227 58.7355 19.936C57.9675 18.5493 57.5835 16.928 57.5835 15.072C57.5835 13.216 57.9568 11.5947 58.7035 10.208C59.4715 8.82133 60.5382 7.75467 61.9035 7.008C63.2688 6.26133 64.8368 5.888 66.6075 5.888C68.3355 5.888 69.8715 6.25067 71.2155 6.976C72.5595 7.70133 73.6048 8.736 74.3515 10.08C75.1195 11.424 75.5035 12.992 75.5035 14.784ZM69.9035 13.344C69.9035 12.4053 69.5835 11.6587 68.9435 11.104C68.3035 10.5493 67.5035 10.272 66.5435 10.272C65.6262 10.272 64.8475 10.5387 64.2075 11.072C63.5888 11.6053 63.2048 12.3627 63.0555 13.344H69.9035ZM86.4223 18.88L90.2943 6.144H96.1183L89.7823 24H83.0303L76.6943 6.144H82.5503L86.4223 18.88Z" fill="#FEF9F9"/>
<path d="M30.4815 24.256C29.5215 24.256 28.7322 23.9787 28.1135 23.424C27.5162 22.848 27.2175 22.144 27.2175 21.312C27.2175 20.4587 27.5162 19.744 28.1135 19.168C28.7322 18.592 29.5215 18.304 30.4815 18.304C31.4202 18.304 32.1882 18.592 32.7855 19.168C33.4042 19.744 33.7135 20.4587 33.7135 21.312C33.7135 22.144 33.4042 22.848 32.7855 23.424C32.1882 23.9787 31.4202 24.256 30.4815 24.256Z" fill="#272222"/>
</svg>
